<svg id="Capa_1" enable-background="new 0 0 478.464 478.464" height="512" viewBox="0 0 478.464 478.464" width="512" xmlns="http://www.w3.org/2000/svg"><g><path d="m429.209 0v393.54h-294.911l-1.772.992-83.253 48.077v-383.014c.036-32.901 26.7-59.562 59.601-59.595z" fill="#f6b863"/><path d="m127.499 0v442.609l-78.226-6.598v-376.416c.036-32.901 26.7-59.562 59.601-59.595z" fill="#eaa14e"/><path d="m429.209 393.54v84.924h-337.518c-21.008.006-38.851-15.377-41.939-36.157-.313-2.071-.479-4.161-.496-6.255-.013-23.41 18.954-42.399 42.365-42.412h.047 42.43z" fill="#eeefee"/><g fill="#eaa14e"><path d="m180.898 62.082h193.306v101.913h-193.306z"/><path d="m180.898 231.559h193.306v11.176h-193.306z"/><path d="m180.898 265.495h193.306v11.176h-193.306z"/><path d="m218.596 299.436h117.903v11.176h-117.903z"/></g><path d="m88.413 409.731h340.797v6.255h-340.797z" fill="#dbd8dd"/><path d="m71.92 432.874h357.283v6.255h-357.283z" fill="#dbd8dd"/><path d="m88.413 456.118h340.797v6.161h-340.797z" fill="#dbd8dd"/></g></svg>